<?xml version="1.0"?>
<svg xmlns="http://www.w3.org/2000/svg" version="1.2" baseProfile="tiny" width="800" height="766" viewBox="0 0 800 766" stroke-linecap="round" stroke-linejoin="round">
<g id="Barkly">
<path d="M 374.23 736.27 374.21 729.06 372.18 729.07 364.27 729.07 364.12 729.07 363.47 729.07 363.53 729.02 364.69 728.08 365.25 726.11 365.41 724.89 366.24 722.94 366.89 721.39 367.14 720.52 366.14 720.19 364.56 719.68 365.65 715.23 365.5 714.03 365.48 713.91 365.1 710.84 367.62 709.21 369.49 707.52 372.18 706.88 373.28 697.38 364.64 685.2 362.72 684.83 350.23 672.38 343.32 672.41 343.48 654.01 333.04 653.89 323.64 653.94 323.57 653.94 323.43 653.94 323.37 653.94 322.57 653.94 310.23 653.89 270.52 653.69 272.65 652.48 275.62 649.16 277.16 648.66 277.71 647.86 278.2 645.98 280.58 643.55 282.25 641.2 283.02 637.5 274.06 637.49 273.96 637.49 273.76 637.49 273.66 637.49 269.73 637.49 268.91 637.49 268.04 637.5 268.04 617.41 259.6 617.35 254.08 617.31 253.98 593.4 253.74 565.53 253.74 565.41 253.67 556.29 253.67 531.28 251.56 531.28 212.12 531.28 212.12 552.41 212.12 552.52 212.12 568.38 212.12 590.56 191.34 590.56 191.34 575.79 180.08 575.8 140.55 575.8 140.48 549.32 140.48 547.61 110.46 523.55 80.52 499.46 68.58 489.83 48.63 472.8 48.55 434.51 48.51 397.43 48.46 360.34 48.41 323.26 48.34 286.18 48.26 249.09 48.22 229.89 9.39 229.93 1 229.93 1.06 212.66 1.06 175.57 1.06 166.32 22.12 166.34 60.84 166.32 60.84 138.47 57.13 138.47 57.06 102.02 94.49 102.03 95.98 102.03 95.98 67.72 95.98 32.99 95.98 31.03 95.98 30.9 95.98 30.79 95.98 11.18 99.63 11.18 111.16 11.18 138.11 11.17 138.11 33.34 138.11 33.45 138.11 37.5 148.01 37.5 148.33 37.5 152.12 37.5 166.55 37.5 166.44 46.65 193.32 46.65 197.68 46.65 197.68 63.21 197.68 65.82 197.68 73.04 203.69 73.04 203.69 74.87 206.51 75.3 206.61 75.72 207.42 78.82 207.45 78.96 220.95 78.96 222.86 78.96 228.42 78.95 228.48 78.95 228.6 78.95 228.66 78.95 245.02 78.92 245.02 73.23 245.02 46.6 252.72 46.6 281.19 46.6 322.47 46.61 352.35 46.61 352.35 19.29 364.75 19.29 403.27 19.27 403.27 16.45 403.27 16.26 403.27 1 420.88 1 431.87 1 431.87 2.88 431.88 31.02 431.88 31.2 431.88 40.02 431.86 63.16 431.86 73.43 431.86 78.81 445.49 78.81 472.77 78.83 473.04 78.72 495.84 78.71 495.83 57.72 509.05 57.73 511.13 57.73 517.1 57.73 517.28 57.73 519.93 57.73 519.93 37.54 540.51 53.36 533.07 57.72 533.07 59.79 533.07 78.65 533.07 96.92 555.65 96.92 555.7 107.32 555.7 107.44 555.77 120.67 574.48 120.7 613.17 120.71 651.84 120.67 651.84 126.34 671.42 126.35 671.7 126.35 688.95 126.34 727.63 126.35 748.04 126.34 748.05 138.08 748.05 138.51 748.05 140.35 758.62 140.36 758.75 140.36 786.73 140.36 798.7 140.35 798.71 160.96 798.71 161.09 798.72 188.99 798.76 251.81 798.76 267.15 798.79 311.56 798.79 314.63 798.79 317.19 798.8 327.66 798.8 338.13 798.8 348.59 798.8 350.18 798.8 350.31 798.81 351.67 798.81 359.07 798.82 369.53 798.82 377.45 798.82 380 798.83 390.47 798.83 400.94 798.84 411.41 798.84 421.88 798.84 429.82 798.84 429.93 798.84 430.79 798.85 440.27 798.85 441.26 798.86 451.73 798.86 462.2 798.87 468.59 798.87 472.67 798.87 473.83 798.87 474" fill="#8174A0"/>
</g>
</svg>
