<?xml version="1.0"?>
<svg xmlns="http://www.w3.org/2000/svg" version="1.2" baseProfile="tiny" width="800" height="683" viewBox="0 0 800 683" stroke-linecap="round" stroke-linejoin="round">
<g id="Central Australia">
<path d="M 235.61 1.09 241.53 1.09 268.94 1.06 268.97 14.61 269.02 40.79 269.07 66.96 269.11 93.14 269.14 119.31 269.17 145.49 269.23 172.51 283.31 184.53 291.74 191.33 312.87 208.34 334.06 225.32 334.06 226.53 334.11 245.21 362.01 245.22 369.96 245.21 369.96 255.64 384.63 255.64 384.63 239.98 384.63 228.79 384.63 228.71 384.63 213.79 412.47 213.79 413.96 213.79 413.95 231.45 414.01 237.89 414.01 237.97 414.18 257.64 414.24 274.52 418.14 274.55 424.1 274.59 424.1 288.77 424.71 288.76 425.29 288.76 428.07 288.76 428.14 288.76 428.28 288.76 428.35 288.76 434.67 288.77 434.13 291.38 432.95 293.04 431.27 294.76 430.93 296.08 430.54 296.65 429.45 297 427.35 299.34 425.85 300.2 453.88 300.34 462.59 300.37 463.15 300.37 463.2 300.37 463.29 300.37 463.34 300.37 469.98 300.34 477.35 300.42 477.23 313.41 482.11 313.39 490.93 322.17 492.28 322.44 498.38 331.03 497.6 337.74 495.71 338.19 494.38 339.38 492.61 340.53 492.88 342.7 492.89 342.78 492.99 343.64 492.23 346.78 493.34 347.14 494.05 347.37 493.87 347.98 493.41 349.07 492.82 350.45 492.71 351.32 492.32 352.71 491.5 353.37 491.45 353.4 491.92 353.4 492.02 353.4 497.6 353.4 499.04 353.4 499.05 358.48 500.03 358.48 500.02 361.08 500.01 362.59 500 363.34 500 364.02 500 364.71 499.99 365.39 499.99 366.05 499.99 366.69 499.98 367.4 499.97 367.55 500.5 368 500.21 368.28 500.04 368.58 499.99 369.75 516.84 369.76 516.93 369.76 522.88 369.75 522.88 367.92 522.88 358.48 522.88 356.12 522.88 356.03 522.87 341.72 544.13 341.61 546.52 341.59 546.48 358.52 546.39 364.45 546.39 364.54 546.37 367.79 546.32 375.7 555.07 375.68 555.17 375.68 568.57 375.65 568.56 372.06 568.57 369.66 574.46 367.12 586.91 375.98 591.76 375.98 601.34 376.16 609.63 377.59 612.77 378.56 614.36 374.98 619.94 375.6 619.94 349.79 619.94 341.72 635.08 341.72 636.2 340.83 636.73 340.42 637.24 340.02 638.37 339.13 639.01 338.62 640.33 337.58 641.25 336.85 642.34 336 642.66 335.74 643.46 335.12 643.72 335.1 643.87 335.03 644.07 334.66 644.39 334.42 644.6 334.27 645.01 333.98 645.55 333.58 646.77 332.68 646.92 332.59 647.13 332.48 647.73 332.35 648.84 332.39 649.41 332.21 649.58 332.03 649.86 331.72 650.32 331.29 651.36 330.3 652.17 329.61 652.36 329.46 653.09 328.88 653.38 328.64 654.28 327.93 654.75 327.55 657.45 326.06 658.22 326.48 658.28 326.55 658.37 326.56 658.67 326.73 659.04 326.6 659.18 326.39 659.59 325.98 660.09 325.81 661.34 325.4 661.83 325.23 662.6 325.23 663.59 325.23 664.15 325.22 665.11 325.22 665.19 325.13 665.19 326.88 684.35 326.88 711.97 326.92 728.62 326.92 740.05 326.91 770.83 326.91 770.83 320.77 798.69 320.77 798.78 320.77 798.87 320.77 798.88 326.92 798.88 327.22 798.88 334.61 798.88 340.13 798.89 342 798.89 349.39 798.89 352.73 798.89 352.89 798.89 356.77 798.9 364.17 798.9 371.03 798.9 371.26 798.91 378.42 798.91 385.81 798.92 393.2 798.92 400.59 798.93 407.98 798.93 415.37 798.93 415.72 798.93 423.11 798.93 430.5 798.93 437.89 798.94 445.28 798.94 452.67 798.94 459.94 798.94 460.06 798.94 467.45 798.95 474.84 798.95 482.23 798.95 489.62 798.95 493.05 798.95 497.01 798.95 504.28 798.95 504.4 798.95 511.79 798.96 519.18 798.96 526.57 798.96 533.96 798.96 541.35 798.96 548.62 798.96 548.74 798.97 556.13 798.97 563.52 798.97 570.91 798.97 578.3 798.97 585.68 798.98 592.96 798.98 593.08 798.98 600.46 798.98 607.85 798.98 615.25 798.98 622.63 798.99 630.03 798.99 633.64 798.99 637.3 798.99 637.41 798.99 644.81 798.99 652.19 798.99 659.58 799 666.97 799 674.36 799 681.5 791.62 681.5 784.23 681.51 776.84 681.52 769.45 681.52 762.06 681.53 754.85 681.53 754.67 681.53 747.28 681.54 746.08 681.54 739.89 681.55 732.5 681.55 725.11 681.56 717.72 681.57 710.51 681.57 710.34 681.57 702.95 681.58 695.56 681.58 688.17 681.59 680.78 681.6 673.39 681.6 666.17 681.61 666 681.61 658.61 681.61 651.22 681.62 644.01 681.63 643.83 681.63 636.44 681.63 629.05 681.64 621.87 681.64 621.83 681.64 621.66 681.64 620.23 681.65 618.8 681.65 617.38 681.65 615.95 681.65 614.53 681.65 613.1 681.65 611.68 681.65 610.25 681.65 608.83 681.65 607.4 681.65 605.98 681.65 604.55 681.65 603.12 681.65 601.7 681.65 600.27 681.65 598.85 681.65 597.42 681.65 596.11 681.65 596 681.65 594.57 681.65 593.14 681.65 591.72 681.65 590.3 681.65 588.87 681.64 587.44 681.64 587.23 681.64 586.02 681.64 584.59 681.64 583.17 681.64 582.45 681.65 581.74 681.64 580.32 681.65 578.89 681.65 577.49 681.65 577.46 681.65 576.04 681.65 574.65 681.65 573.19 681.65 571.76 681.65 570.33 681.65 568.91 681.65 568.65 681.65 567.49 681.65 566.06 681.65 564.63 681.65 563.21 681.65 561.79 681.65 560.6 681.65 560.36 681.65 559.63 681.65 559.48 681.65 559.39 681.65 558.95 681.64 557.51 681.65 556.09 681.65 554.66 681.65 553.23 681.65 552.38 681.65 551.81 681.65 550.96 681.65 550.87 681.65 550.38 681.65 548.95 681.65 547.53 681.65 546.11 681.65 545.8 681.65 544.68 681.65 543.25 681.65 541.83 681.64 540.4 681.64 538.98 681.65 538.13 681.65 537.55 681.65 536.13 681.65 534.7 681.65 533.28 681.65 533.15 681.65 531.85 681.65 530.43 681.65 529.57 681.65 529 681.65 528.69 681.65 527.57 681.65 527.17 681.65 526.15 681.65 524.72 681.65 523.3 681.65 521.87 681.65 521.42 681.65 521.29 681.65 520.45 681.65 519.02 681.65 517.6 681.65 516.17 681.65 515.3 681.65 515.2 681.65 514.74 681.65 513.32 681.65 513.14 681.65 513.02 681.65 511.89 681.65 510.47 681.65 509.04 681.65 507.62 681.65 506.19 681.65 504.77 681.65 503.34 681.65 501.92 681.65 500.49 681.65 499.06 681.65 497.64 681.65 496.21 681.65 494.79 681.65 493.36 681.65 491.94 681.65 490.51 681.65 489.08 681.65 488.81 681.65 487.66 681.65 486.23 681.65 484.81 681.65 483.38 681.65 481.96 681.65 480.53 681.65 479.11 681.65 477.68 681.65 476.26 681.65 474.83 681.65 473.41 681.65 471.98 681.65 470.55 681.65 469.13 681.65 468.46 681.65 467.7 681.65 466.28 681.65 464.85 681.65 463.43 681.65 462 681.65 460.58 681.65 457.72 681.65 456.3 681.65 454.87 681.65 453.45 681.65 452.02 681.65 450.6 681.65 449.17 681.65 447.75 681.65 446.32 681.65 444.89 681.65 444.47 681.65 443.47 681.65 442.04 681.65 440.62 681.65 439.19 681.65 437.77 681.65 436.34 681.65 434.92 681.65 433.49 681.65 432.07 681.65 430.64 681.65 429.22 681.65 427.79 681.65 426.36 681.65 425.47 681.65 425.38 681.65 424.94 681.65 422.09 681.65 420.66 681.65 419.24 681.65 417.81 681.65 416.39 681.65 414.96 681.65 413.54 681.65 412.11 681.65 410.68 681.65 410.19 681.65 409.26 681.65 407.83 681.65 406.41 681.65 404.98 681.65 403.56 681.65 402.13 681.65 400.71 681.65 400.13 681.65 399.28 681.65 397.86 681.65 396.75 681.65 396.6 681.65 396.43 681.65 395 681.65 393.58 681.65 392.15 681.65 391.97 681.65 391.8 681.65 390.73 681.65 389.3 681.65 387.88 681.65 386.45 681.65 385.02 681.65 383.6 681.65 382.17 681.65 380.75 681.65 379.32 681.65 377.9 681.65 376.47 681.65 375.05 681.65 373.62 681.65 373.24 681.65 373.05 681.65 372.2 681.65 370.77 681.65 369.35 681.65 367.92 681.65 366.49 681.65 365.07 681.65 363.64 681.65 362.22 681.65 360.79 681.65 359.37 681.65 357.94 681.65 356.52 681.65 355.79 681.65 355.09 681.65 354.68 681.65 353.66 681.65 353.48 681.65 353.39 681.65 352.24 681.65 350.81 681.65 349.39 681.65 347.96 681.65 346.54 681.65 345.11 681.65 343.69 681.65 342.26 681.65 340.83 681.65 339.41 681.65 337.98 681.65 336.56 681.65 335.13 681.65 333.71 681.65 332.28 681.65 330.86 681.65 329.43 681.65 328 681.65 326.58 681.65 325.15 681.65 323.73 681.65 322.3 681.65 320.88 681.65 319.45 681.65 318.03 681.65 316.6 681.65 315.18 681.65 313.75 681.65 312.32 681.65 311.45 681.65 310.9 681.65 309.48 681.65 308.05 681.65 306.62 681.65 305.2 681.65 303.77 681.65 302.35 681.65 300.92 681.65 299.5 681.65 298.07 681.65 296.64 681.65 295.22 681.65 293.79 681.65 292.37 681.65 291.01 681.65 290.92 681.65 289.52 681.65 288.09 681.65 286.67 681.65 285.24 681.65 283.82 681.65 282.39 681.65 280.97 681.65 279.54 681.65 278.11 681.65 276.69 681.65 275.26 681.65 273.84 681.65 272.41 681.65 270.99 681.65 269.56 681.65 268.14 681.65 267.11 681.65 266.71 681.65 265.77 681.65 265.29 681.65 263.86 681.65 262.43 681.65 261.01 681.65 259.58 681.65 258.16 681.65 256.73 681.65 255.31 681.65 253.88 681.65 252.45 681.65 251.03 681.65 249.6 681.65 248.18 681.65 246.75 681.65 245.33 681.65 243.9 681.65 242.48 681.65 241.05 681.65 239.62 681.65 238.2 681.65 236.77 681.65 235.35 681.65 233.92 681.65 232.5 681.65 231.07 681.65 230.67 681.65 228.9 681.65 226.8 681.65 225.37 681.65 224.03 681.65 223.88 681.65 223.7 681.65 222.77 681.65 222.52 681.65 221.09 681.65 219.67 681.65 218.24 681.65 216.82 681.65 215.39 681.65 213.97 681.65 212.54 681.65 211.26 681.65 211.12 681.65 209.69 681.65 208.26 681.65 206.84 681.65 205.41 681.65 203.99 681.65 202.56 681.65 201.14 681.65 199.71 681.65 198.29 681.65 196.86 681.65 195.43 681.65 194.01 681.65 192.58 681.65 191.16 681.65 189.73 681.65 186.86 681.65 182.61 681.65 181.18 681.65 179.76 681.65 178.43 681.65 176.91 681.65 175.48 681.65 174.05 681.65 172.63 681.65 171.2 681.65 169.78 681.65 168.35 681.65 166.93 681.65 165.5 681.65 164.07 681.65 162.65 681.65 161.22 681.65 159.8 681.65 158.37 681.65 156.95 681.65 155.52 681.65 154.1 681.65 152.67 681.65 151.24 681.65 149.82 681.65 148.39 681.65 146.97 681.65 145.54 681.65 144.12 681.65 142.69 681.65 141.27 681.65 139.84 681.65 138.42 681.65 136.99 681.65 135.57 681.65 134.14 681.65 134.09 681.65 132.72 681.65 131.29 681.65 129.86 681.65 128.44 681.65 127.01 681.65 125.59 681.65 124.16 681.65 122.74 681.65 121.31 681.65 119.88 681.65 118.46 681.65 117.03 681.65 116.46 681.65 115.61 681.65 114.18 681.65 113.5 681.65 106.11 681.65 98.72 681.65 91.33 681.65 89.75 681.65 83.94 681.65 76.55 681.65 69.16 681.65 61.77 681.65 54.38 681.65 46.99 681.65 45.41 681.65 39.6 681.65 38.65 681.65 38.18 681.65 36.75 681.65 35.33 681.65 33.9 681.65 32.48 681.65 31.05 681.65 29.62 681.65 28.2 681.65 26.77 681.65 25.35 681.65 23.92 681.65 22.5 681.65 21.07 681.65 19.65 681.65 18.22 681.65 16.8 681.65 15.37 681.65 13.94 681.65 12.52 681.65 11.09 681.65 9.67 681.65 8.24 681.65 6.82 681.65 5.39 681.65 3.97 681.65 2.54 681.65 1.07 681.65 1 681.65 1 681.65 1.01 674.26 1.01 666.87 1.01 659.48 1.01 652.09 1.01 644.7 1.01 637.31 1.01 629.92 1.01 622.53 1.01 615.14 1.01 607.75 1.01 600.36 1.02 592.97 1.02 585.58 1.02 578.19 1.02 570.8 1.02 563.41 1.02 556.02 1.02 548.63 1.02 541.24 1.02 533.85 1.02 526.47 1.02 519.07 1.02 516.6 1.02 511.69 1.02 504.29 1.02 496.91 1.02 489.52 1.03 482.13 1.03 474.74 1.03 467.35 1.03 459.96 1.03 452.57 1.03 445.18 1.03 437.79 1.03 430.4 1.03 423.01 1.03 417.58 1.03 415.62 1.03 415.61 1.03 408.23 1.04 400.84 1.04 393.45 1.04 386.06 1.04 378.67 1.04 371.28 1.04 363.89 1.04 356.5 1.04 349.11 1.04 341.72 1.04 334.33 1.04 326.94 1.04 319.55 1.04 312.16 1.05 304.77 1.05 297.38 1.05 289.99 1.05 282.6 1.05 275.21 1.05 267.82 1.05 260.43 1.05 253.04 1.05 245.65 1.05 238.24 1.05 230.87 1.05 223.48 1.05 217.61 1.05 216.09 1.06 208.7 1.06 201.31 1.06 193.92 1.06 193.9 1.06 186.53 1.06 180.15 1.06 179.14 1.06 171.75 1.06 164.36 1.06 156.97 1.06 149.58 1.06 142.19 1.06 140.5 1.06 140.35 1.06 140.23 1.05 133.11 1.04 125.72 1.03 118.33 1.03 116.95 1.03 110.94 1.02 105.22 1.02 103.55 1 96.16 1 91.04 1 90.36 1 89.08 1 87.79 1 86.5 1 85.21 1 83.92 1 82.63 1 81.34 1 80.08 1 80.05 1 78.76 1 77.47 1 76.18 1 74.89 1 73.6 1 72.32 1 71.03 1 69.88 1 69.74 1 68.45 1 67.16 1 65.87 1 64.58 1 63.29 1 62 1 60.71 1 59.42 1 58.13 1 56.89 1 56.84 1 55.55 1 54.26 1 52.98 1 51.69 1 50.4 1 49.11 1 47.82 1 46.53 1 45.24 1 43.95 1 42.66 1 41.37 1 40.08 1 38.79 1 37.5 1 36.21 1 34.92 1 33.64 1 32.86 28.47 32.86 39.89 32.86 45.59 32.89 73.08 32.9 100.58 32.86 100.57 58.3 116.1 58.15 116.23 58.24 116.28 58.29 116.34 58.34 116.83 58.81 117.07 59.06 117.32 59.29 117.9 59.75 118.19 59.98 118.48 60.21 118.91 60.57 119.13 60.74 119.37 60.88 119.71 61.03 119.89 61.1 120.07 61.17 120.34 61.28 120.47 61.33 120.61 61.34 120.89 61.29 121.03 61.24 121.18 61.21 121.52 61.17 121.69 61.18 121.85 61.23 122.01 61.33 122.07 61.4 122.11 61.47 122.11 61.72 122.09 61.86 122.12 61.98 122.25 62.14 122.34 62.21 122.43 62.27 122.88 62.43 123.12 62.46 123.37 62.48 123.88 62.5 124.14 62.5 124.4 62.49 124.99 62.47 125.28 62.44 125.58 62.4 125.92 62.32 126.08 62.26 126.24 62.19 126.49 62.01 126.61 61.91 126.73 61.81 126.93 61.65 127.04 61.58 127.15 61.53 127.53 61.43 127.72 61.4 127.91 61.35 128.43 61.14 128.67 61 128.89 60.84 129.28 60.48 129.47 60.29 129.65 60.1 130.14 59.63 130.38 59.4 130.62 59.17 131.15 58.68 131.43 58.46 131.74 58.27 131.98 58.15 132.11 58.11 132.24 58.07 132.49 58.05 132.62 58.06 132.74 58.08 132.9 58.15 132.97 58.19 133.05 58.23 133.34 58.35 133.48 58.4 133.63 58.44 133.91 58.46 134.05 58.45 134.18 58.43 134.47 58.31 134.6 58.22 134.71 58.12 134.87 57.85 134.93 57.7 134.98 57.54 135.07 57.32 135.12 57.22 135.18 57.14 135.44 56.99 135.6 56.93 135.75 56.88 136.04 56.77 136.17 56.7 136.28 56.61 136.41 56.41 136.46 56.31 136.52 56.2 136.67 55.98 136.75 55.87 136.85 55.78 137.15 55.55 137.32 55.47 137.5 55.4 138 55.28 138.27 55.25 138.53 55.21 138.95 55.12 139.16 55.07 139.36 55 139.63 54.88 139.75 54.81 139.86 54.72 140.07 54.47 140.15 54.33 140.24 54.19 140.42 53.93 140.52 53.81 140.64 53.72 140.94 53.57 141.11 53.51 141.27 53.45 141.56 53.31 141.7 53.22 141.82 53.13 142.14 52.77 142.29 52.58 142.45 52.4 142.72 52.19 142.86 52.09 143.01 52 143.26 51.84 143.37 51.75 143.48 51.65 143.57 51.5 143.6 51.42 143.62 51.34 143.58 51.06 143.51 50.91 143.45 50.78 143.31 50.46 143.23 50.3 143.18 50.13 143.14 49.88 143.14 49.75 143.15 49.62 143.24 49.39 143.32 49.28 143.41 49.19 143.7 49.05 143.87 49.02 144.04 49.01 144.46 49.07 144.67 49.11 144.88 49.11 145.02 49.08 145.09 49.07 145.16 49.05 145.28 48.95 145.34 48.9 145.39 48.85 145.53 48.66 145.59 48.56 145.63 48.46 145.7 48.21 145.72 48.09 145.74 47.96 145.77 47.66 145.79 47.51 145.82 47.37 145.97 47.02 146.04 46.84 146.09 46.66 146.12 46.5 146.12 46.42 146.12 46.34 146.05 45.99 146 45.82 145.96 45.63 145.95 45.43 145.96 45.33 145.98 45.24 146.13 45.01 146.22 44.91 146.31 44.8 146.44 44.57 146.5 44.45 146.54 44.33 146.6 44.06 146.62 43.92 146.66 43.78 146.77 43.48 146.83 43.32 146.88 43.16 146.91 42.98 146.91 42.89 146.9 42.81 146.76 42.62 146.67 42.52 146.59 42.42 146.48 42.22 146.44 42.11 146.42 42 146.45 41.81 146.49 41.72 146.54 41.64 146.74 41.48 146.86 41.42 146.99 41.37 147.24 41.29 147.36 41.24 147.46 41.17 147.54 41.06 147.57 41 147.59 40.94 147.55 40.68 147.5 40.55 147.44 40.42 147.37 40.23 147.36 40.14 147.36 40.05 147.42 39.91 147.47 39.84 147.53 39.78 147.71 39.65 147.81 39.6 147.91 39.53 148.11 39.38 148.19 39.29 148.26 39.2 148.34 39.01 148.38 38.9 148.41 38.79 148.49 38.61 148.54 38.53 148.6 38.46 148.81 38.39 148.93 38.38 149.04 38.37 149.39 38.37 149.57 38.38 149.74 38.36 149.97 38.29 150.07 38.24 150.16 38.18 150.35 37.9 150.43 37.75 150.52 37.61 150.74 37.36 150.86 37.24 150.97 37.12 151.18 36.89 151.3 36.79 151.43 36.72 151.64 36.68 151.74 36.68 151.85 36.69 152.02 36.73 152.11 36.75 152.2 36.76 152.5 36.74 152.65 36.7 152.79 36.65 153.19 36.43 153.38 36.3 153.56 36.16 153.98 35.84 154.2 35.71 154.43 35.6 154.78 35.5 154.96 35.48 155.13 35.47 155.52 35.51 155.72 35.53 155.91 35.54 156.33 35.49 156.54 35.45 156.75 35.4 157.15 35.27 157.36 35.2 157.56 35.15 158.01 35.09 158.24 35.08 158.47 35.09 158.92 35.14 159.14 35.18 159.37 35.23 159.77 35.34 159.97 35.41 160.17 35.48 160.6 35.67 160.82 35.75 161.04 35.8 161.44 35.84 161.64 35.82 161.84 35.8 162.14 35.71 162.28 35.66 162.43 35.6 162.99 35.36 163.27 35.23 163.54 35.1 163.86 34.95 164.03 34.89 164.19 34.85 164.5 34.8 164.66 34.79 164.82 34.78 165.16 34.75 165.33 34.75 165.51 34.75 165.9 34.79 166.1 34.8 166.29 34.77 166.45 34.73 166.53 34.7 166.61 34.67 166.98 34.48 167.14 34.37 167.3 34.24 167.46 34.09 167.53 34.01 167.61 33.92 167.85 33.64 167.98 33.51 168.13 33.39 168.43 33.24 168.59 33.18 168.76 33.13 159.64 13.63 159.52 1.07 160.27 1.07 173.42 1.05 191.55 1 218.97 1.07 235.61 1.09 Z"/>
</g>
</svg>