<?xml version="1.0"?>
<svg xmlns="http://www.w3.org/2000/svg" version="1.2" baseProfile="tiny" width="800" height="992" viewBox="0 0 800 992" stroke-linecap="round" stroke-linejoin="round">
<g id="Darwin, Palmerston, Litchfield">
<path d="M 170.8 259.93 172.15 259.93 173.4 259.97 174.34 260.1 175.72 260.58 178.39 262.2 179.74 262.85 181.02 263.23 182.34 263.36 183.48 263.36 183.82 263.36 184.8 263.3 185.68 263.19 186.22 263.12 186.76 263.02 187.2 262.95 188.07 262.82 188.51 262.71 189.22 262.58 189.79 262.47 190.27 262.3 190.81 262.09 191.08 261.99 191.35 261.92 191.89 261.72 192.19 261.65 192.46 261.58 192.73 261.48 193.03 261.41 193.27 261.34 193.51 261.27 193.91 261.17 194.49 261.1 194.92 261.06 195.09 261.06 195.23 261.06 195.3 261.06 195.5 261.06 195.53 261.06 195.6 261.06 195.67 261.06 195.7 261.06 195.77 261.06 195.87 261.06 196.1 261.1 196.48 261.17 196.75 261.2 197.22 261.3 198.06 261.72 198.53 261.96 198.97 262.16 199.38 262.37 199.68 262.47 200.02 262.58 200.36 262.68 200.76 262.75 201.17 262.75 201.61 262.75 202.04 262.75 202.48 262.75 203.33 262.78 203.9 262.88 204.1 262.92 204.51 262.99 204.95 263.09 205.49 263.23 205.96 263.4 206.4 263.54 206.77 263.67 207.17 263.81 207.58 263.95 208.08 264.12 208.56 264.22 208.89 264.33 209.23 264.43 209.67 264.53 210.01 264.63 210.41 264.77 210.82 264.88 211.22 265.01 211.69 265.15 212.1 265.29 212.5 265.49 212.88 265.66 213.31 265.84 213.72 266.04 214.23 266.25 214.66 266.45 215.24 266.76 215.74 267.04 216.22 267.35 216.59 267.59 217.03 267.86 217.4 268.07 217.77 268.24 218.14 268.51 218.61 268.75 219.29 269.06 219.79 269.3 220.33 269.54 220.94 269.89 221.62 270.27 222.19 270.57 222.66 270.88 223.17 271.19 223.64 271.5 224.11 271.78 224.72 272.05 225.26 272.26 225.8 272.46 226.41 272.63 226.98 272.77 227.62 272.87 228.3 272.98 228.94 273.05 229.65 273.08 230.25 273.08 230.89 273.08 231.43 273.08 232.01 273.05 232.75 272.98 233.8 272.87 234.67 272.77 235.58 272.63 236.19 272.5 236.73 272.43 237.31 272.36 237.85 272.36 238.42 272.39 238.99 272.43 239.57 272.53 240.65 272.77 241.09 272.87 242.4 273.22 244.66 273.7 245.81 273.94 246.38 274.04 248.71 274.39 249.99 274.45 251.28 274.39 253.84 274.11 254.48 274.01 255.16 273.9 255.8 273.73 256.47 273.6 257.05 273.42 257.62 273.25 258.7 272.74 259.1 272.46 259.51 272.12 260.25 271.4 260.79 270.44 261.23 269.44 261.5 268.69 261.67 267.93 261.87 266.32 261.9 265.39 261.9 264.46 261.8 262.61 261.8 261.37 261.84 260.1 261.84 257.6 261.8 256.88 261.7 256.19 261.43 254.78 261.23 254.3 260.99 253.65 260.96 252.96 261.09 252.24 261.13 251.93 260.99 251.59 260.76 251.25 260.66 251.07 260.62 250.9 260.69 250.76 260.76 250.7 260.79 250.63 261.13 250.32 261.3 250.18 261.43 250.04 261.84 249.25 261.94 248.84 261.97 248.4 261.63 246.82 261.26 246.03 260.89 245.34 260.49 244.55 260.29 244.1 260.08 243.56 259.85 242.42 259.91 241.98 260.15 241.77 260.56 241.84 260.79 241.91 260.96 242.04 261.33 242.59 261.5 242.83 261.74 242.97 262.44 242.83 262.78 242.63 263.09 242.39 263.56 241.6 263.73 241.15 263.83 240.71 263.76 237.72 263.36 236.17 263.02 234.59 262.82 233.05 262.82 232.29 262.95 231.54 263.25 230.71 263.42 230.3 263.63 229.93 265.08 227.69 265.89 226.66 266.66 225.57 269.56 220.93 271.02 218.63 272.57 216.36 272.7 216.19 272.77 216.09 272.87 215.99 274.56 212.97 275.37 211.45 276.08 209.88 277.6 205.79 278.27 203.73 278.95 201.64 279.99 198.55 280.5 197 280.97 195.42 281.48 193.53 281.71 192.57 281.95 191.65 284.88 179.59 288.16 164.04 289.54 156.87 290.05 144.27 289 133.42 287.04 126.79 283.4 123.08 278.44 120.75 268.75 117.73 262.41 114.43 256.44 109.15 252.15 103.55 248.88 96.99 246.89 91.09 245.98 85.22 242.13 80.14 237.04 77.63 228.77 75.91 223.37 73.37 219.49 70.8 216.32 66.3 214.56 47.93 216.76 37.74 220.84 27.81 228.13 21.12 237.2 14.01 244.39 9.51 253.94 5.22 258.63 3.78 274.42 2.51 294.33 1.1 306.41 1 318.05 2.44 325.55 4.26 332.46 7.28 337.79 10.85 346.84 14.11 351.86 15.01 363.24 14.11 375.35 12.57 396.34 10.3 407.1 11.51 413.89 14.73 418.71 18.17 421.98 23.66 422.56 28.33 420.3 40 419.55 44.88 418.04 47.31 414.09 49.99 413.72 52.77 414.93 52.91 416.18 53.01 418.68 53.18 421.01 53.25 423.33 53.22 428.02 53.18 429 53.25 430.01 53.32 431.97 53.39 433.25 53.29 434.5 53.08 437.03 52.6 437.88 52.46 438.75 52.36 440.51 52.15 442.5 51.81 444.46 51.36 448.24 50.09 449.89 49.27 451.48 48.34 454.51 46.22 456.17 44.94 457.79 43.61 460.92 40.86 462.27 39.49 463.56 38.08 466.39 35.61 467.5 35.02 468.68 34.51 471.22 33.96 472.16 33.89 473.14 33.92 475.06 34.1 475.67 34.1 476.31 34.06 477.53 34.16 478.3 34.44 479.01 34.92 480.36 36.12 480.83 36.57 481.34 37.01 482.25 37.94 482.92 38.97 483.43 40.1 484.44 42.44 485.05 43.33 485.79 44.16 487.48 45.6 488.66 46.49 489.88 47.31 491.97 48.93 494.87 52.91 496.19 57.13 498.72 60.57 502.16 63.35 506.92 65.37 510.97 64.27 511.44 61.36 508.54 59.54 507.89 57.37 510.59 56.14 514.24 56.72 518.73 58.61 523.82 61.87 529.36 66.02 533.71 71.96 536.51 79.07 539.51 86.59 542.72 95.04 546.29 103.65 552.44 111.72 555.14 113.51 557.67 114.64 560.23 115.19 562.39 115.46 565.12 115.63 567.86 115.81 570.59 115.77 573.96 115.6 574.88 115.6 575.82 115.46 577.64 115.09 579.4 114.71 581.12 114.4 584.63 113.95 586.25 113.78 587.9 113.64 591.14 113.81 592.29 114.16 593.43 114.64 595.49 116.01 595.86 116.49 599.85 122.54 603.36 126.93 608.96 130.77 621.88 135.51 627.92 138.98 633.08 145.74 635.38 154.7 637.4 167.58 640.78 178.26 641.22 188.35 640.47 197.34 643.44 205.28 648.88 210.56 656.16 215.68 659.13 220.66 659.07 225.15 657.11 229.89 649.42 239.06 641.96 246.61 632.71 258.01 629.47 262.33 628.02 266.94 629 270.23 631.94 273.32 635.85 275.24 639.66 277.37 641.28 279.71 641.15 284.1 640.57 289.18 640.51 293.4 642.13 297.46 645.77 302.09 652.38 307.45 655.32 311.94 657.78 319.77 659.27 322.59 662.81 324.89 670.54 327.02 673.61 329.04 675.87 332.47 678.81 336.49 683.16 338.83 685.39 338.65 690.78 332.34 694.63 331.2 698.65 331.34 701.55 333.5 704.01 338 704.69 342.23 704.08 345.69 702.19 348.85 697.23 352.01 692.57 353.45 686.33 352.9 681.17 351.84 678.13 352.8 676.58 356.44 676.61 359.87 677.89 362.82 681.78 365.3 685.66 366.53 688.73 369.97 688.9 371.2 689.57 374.19 688.46 377.17 686.74 379.37 682.72 379.89 678.84 378.96 675.47 378.38 672.29 379.34 669.9 380.78 667.97 383.77 667.7 387.68 668.38 391.11 669.83 393.52 671.92 394.75 676.71 393.93 682.01 392.8 686.2 393.69 689.91 395.23 692 398.67 692.67 402.27 692.24 407.28 692.91 411.2 694.23 414.01 696.66 415.39 699.52 414.73 702.7 410.48 706.04 405.6 711 404.47 715.35 405.98 719.53 408.45 722.77 411.88 723.58 413.43 723.62 416.73 722.84 419.85 720.95 422.39 717.58 422.12 712.11 420.12 708.1 419.51 704.25 420.33 700.4 422.42 698.82 424.45 697.9 428.71 698.88 432.76 701.31 435.88 705.5 437.56 709.85 436.74 712.85 434.37 715.72 429.02 718.08 427.13 721.46 426.44 724.02 427.06 725.51 428.91 725.2 432.21 722.5 433.82 719.64 436.33 718.18 438.87 717.75 442.78 718.59 445.74 720.38 447.45 722.77 447.59 727.57 445.36 732.86 443.92 737.18 444.64 739.92 446.04 741.06 448.79 740.59 451.92 739.48 453.8 731.65 456.38 729.25 457.99 727.5 460.5 726.25 464.1 726.79 468.5 728.58 471.45 731.65 472.69 735.16 472.03 737.38 469.67 740.22 464.62 747.1 461.6 754.63 461.36 758.68 462.59 761.41 464.89 762.25 467.57 761.44 469.77 758.27 471.35 754.26 472.79 752.67 474.06 751.42 476.74 750.95 480.51 751.79 483.02 753.75 485.49 756.31 485.94 759.66 484.36 764.78 482.27 769.44 482.37 774.1 484.53 776.19 487.59 777.34 490.54 777.37 493.18 776.59 495.72 775.18 498.06 772.55 499.77 771.03 501.87 770.72 505.78 771.57 508.6 773.02 511.24 775.62 512.96 780.27 512.92 783.78 511.62 788.57 506.88 792.08 505.75 795.79 506.19 796.91 508.22 796.3 511.82 794.75 515.29 791.07 518.93 789.01 522.09 788.4 525.04 789.38 528.03 791.17 529.75 795.22 532.84 797.99 537.33 798.66 539.91 799 543.82 797.79 548.83 796.2 551.99 794.78 555.6 793.53 557.35 791.91 557.83 787.73 557.25 782.77 557.76 778.75 559.03 774 562.05 769.98 564.59 768.09 566.65 768.73 568.37 769.88 569.95 774.7 571.77 778.75 573.76 782.94 577.33 783.95 579.97 783.31 582.51 781.08 584.4 778.55 585.84 776.46 588.04 775.68 591.65 776.19 594.15 777.51 595.39 781.35 595.66 785.54 595.8 787.32 597.35 786.85 599.06 783.82 601.29 779.83 604.93 777.78 606.89 775.72 610.8 775.41 613.17 776.09 615.34 784.15 619.18 785.3 621.07 785.17 623.27 783.71 624.36 778.25 624.74 775.21 625.7 772.17 627.59 769.81 631.37 768.39 634.22 768.9 637.96 770.39 640.29 773.96 644.35 774.3 647.02 772.71 649.7 770.01 653.31 766.2 658.83 762.56 662.47 756.82 665.8 750.75 669.48 746.29 674.52 743.59 678.61 742.99 681.6 743.15 685.03 744.94 687.23 746.6 688.22 753.01 688.5 757.87 690.49 759.96 692.17 761.11 695.16 760.33 697.66 758.1 699.41 753.92 699.59 744.44 698.59 739.75 695.02 736.51 691.93 734.11 692.1 730.43 694.47 722.47 702.54 720.11 705.39 717.61 714.86 717.21 716.51 716.43 718.57 714.94 721.25 713.49 723.93 712.18 727.05 711.44 730.21 711.23 734.85 710.76 736.01 707.89 738.07 705.46 739.17 702.83 740.1 700.74 741.27 698.58 743.02 695.81 745.28 692.91 747 689.23 748.37 686.57 749.5 684.2 749.85 682.25 749.81 679.92 749.5 677.39 749.5 675.74 750.05 674.69 751.05 674.25 753.49 673.64 754.86 672.36 755.72 669.59 756.03 667.3 756.03 664.67 755.68 663.18 755.99 661.8 756.99 660.58 758.84 659.4 761.14 658.66 762.72 658.19 764.37 657.34 765.19 656.3 765.23 655.29 764.71 653.94 763.37 652.79 763.03 650.8 763.03 646.65 763.58 644.86 763.89 642.77 764.58 640.91 765.74 639.26 766.91 638.28 768.32 637.33 771.13 637 772.23 636.36 773.33 635.45 774.19 634.43 774.91 632.88 775.7 631.09 776.59 630.01 777.38 629.34 778.27 629.27 779.3 630.45 782.26 631.97 784.21 632.54 785.42 632.81 786.89 632.81 788.44 632.44 789.81 631.77 791.53 629.98 794.14 628.7 796.13 627.35 798.15 626.3 799.73 625.49 801.24 625.09 802.58 625.15 803.96 626.17 805.53 629.17 808.18 631.56 809.89 632.98 811.23 634.03 812.5 635.04 814.25 636.29 815.7 637.6 816.31 638.75 816.59 642.94 816.73 643.58 817 643.98 817.55 644.18 818.68 643.88 820.06 643.27 821.02 642.4 822.15 641.72 823.52 641.32 825 641.05 826.1 640.91 827.37 640.95 830.67 641.15 833.86 641.32 835.23 641.82 837.29 642.63 839.52 642.94 840.79 643 841.72 642.8 842.72 642.26 843.71 640.24 844.88 638.28 845.84 636.19 846.63 634.4 847.49 633.25 848.31 632.64 849 632 850.13 631.7 851.16 631.56 852.19 631.63 854.22 631.94 855.73 632.14 857.03 632.07 857.86 631.8 858.71 631.09 860.16 630.32 861.36 629.71 862.56 628.97 863.21 627.95 863.83 627.11 864.14 625.22 864.17 622.49 863.59 619.79 862.94 618.47 862.39 617.39 861.74 614.96 859.61 614.09 859.37 613.48 859.64 612.26 861.05 611.49 861.84 610.85 862.53 609.94 862.59 609.06 862.11 608.11 861.53 606.93 861.36 605.95 861.5 604.91 862.15 604.27 862.9 603.93 863.73 603.86 864.65 604.1 865.34 604.6 866.06 605.38 866.85 606.66 867.88 608.21 868.88 609.16 869.08 610.54 869.08 611.52 869.32 612.2 869.7 612.57 870.22 612.74 870.9 612.74 871.52 612.5 872.34 612.13 873.2 611.93 874.03 611.86 874.88 611.86 876.33 611.93 877.46 611.76 878.04 611.05 878.9 610.07 879.42 609.36 879.45 608.45 879.14 607.57 878.52 606.63 877.94 605.95 877.87 605.31 878.28 604.84 879.18 604.57 880.45 603.96 881.61 603.15 882.2 602.34 882.4 601.03 882.44 600.08 882.09 598.93 881.37 596.17 880.03 594.99 879.28 593.23 878.46 591.48 877.94 589.32 877.43 588.07 877.43 586.96 877.63 585.74 878.32 584.53 879.31 583.89 880.21 583.48 881.06 582.77 882.51 582.6 883.43 582.23 884.19 581.25 884.98 579.73 885.94 578.79 886.8 578.49 887.83 578.55 890.09 578.42 890.81 577.61 891.4 576.97 891.74 576.23 891.64 574.67 890.78 573.46 890.4 572.51 890.47 571.67 891.06 570.46 892.36 569.65 893.49 568.33 895.72 566.27 899.29 565.36 900.98 564.38 902.52 562.86 904.55 561.82 905.99 561.38 906.85 560.67 907.91 558.81 910.25 557.84 910.83 555.44 911.48 553.92 911.59 552.54 910.83 551.53 909.8 550.18 909.77 548.89 910.08 548.35 910.38 548.12 910.9 548.45 911.65 550.82 913.58 552.34 915.81 553.11 917.35 553.55 918.59 554.09 921.54 554.49 924.29 554.83 927.45 555.2 930.16 556.15 932.29 556.28 933.15 555.68 933.7 553.48 934.11 551.96 934.28 550.04 934.69 548.59 934.97 547.1 934.76 545.62 934.24 544.78 934.42 543.49 935.24 542.18 936 541.54 936.51 541.33 937.3 541.4 938.19 542.04 940.32 542.55 942 542.95 943.03 543.83 944.3 544.57 944.78 545.25 945.2 545.28 945.95 543.66 948.6 542.92 950.35 542.31 951.89 541.13 954.36 540.42 955.56 540.02 956.32 539.61 958.14 539.68 960.92 540.02 967.86 540.49 970.67 540.76 971.46 541.57 972.9 541.67 973.59 541.27 974.52 539.61 977.37 538.7 978.98 537.59 981.49 537.08 982.34 536.31 983.44 535.53 984.92 534.96 986.12 534.55 987.67 534.42 988.9 534.32 989.42 534.28 989.97 495.31 990.38 473.17 990.65 473.17 968.99 463.05 968.99 451.34 968.95 451.27 964.18 451.27 963.8 451.17 959.82 451.17 959.58 442.94 959.79 442.13 959.79 440.95 956.53 440.54 939.98 438.21 940.01 437.17 940.05 435.89 940.08 409.97 940.66 409.97 940.36 409.9 937.88 392.32 937.88 391.65 937.88 371.37 937.85 351.09 937.82 350.82 937.82 350.85 927.93 350.85 927.86 330.54 927.79 310.26 927.79 309.99 927.79 309.99 927.93 309.99 932.94 309.99 938.02 309.96 968.3 309.96 988.63 268.86 988.21 227.72 987.8 198.1 987.49 190.1 987.49 189.32 987.49 187.91 987.46 187.64 987.49 177.14 987.49 169.89 987.49 169.52 987.49 167.29 987.49 157.27 987.46 146.94 987.46 146.7 987.46 136.51 987.46 126.32 987.46 116.2 987.43 106.04 987.43 105.77 987.36 105.74 981.07 105.74 977.47 105.77 967.51 105.81 957.59 105.84 947.63 105.81 947.36 105.84 937.47 105.87 927.52 105.91 917.56 105.94 907.6 105.94 907.36 105.94 897.41 106.01 867.3 106.01 860.64 106.01 858.71 106.01 847.39 106.04 827.3 106.04 820.74 106.04 820.43 106.04 817.65 106.11 807.11 106.11 800.69 106.11 796.23 106.11 787.24 106.04 773.47 106.04 771.55 106.04 768.63 105.84 746.9 105.84 727.46 105.84 709.99 105.84 706.49 105.84 700.75 105.84 694.09 105.23 693.44 104.69 692.79 103.75 691.38 103.45 690.76 103.18 690.11 102.84 688.81 102.77 687.88 102.84 686.99 103.01 685.13 103.01 684.31 102.94 683.48 102.64 681.91 102.33 681.08 101.99 680.26 101.12 678.75 100.64 678.06 100.14 677.37 99.06 676.07 97.84 674.94 96.53 673.91 93.9 671.85 93.09 671.06 92.34 670.2 91.03 668.41 90.45 667.45 89.95 666.49 89.04 664.46 88.43 662.78 87.96 661.07 87.05 657.6 86.67 656.6 86.27 655.61 85.53 653.62 85.33 652.83 85.19 652 85.06 650.35 85.06 649.43 85.06 648.47 85.19 646.61 85.26 645.44 85.36 644.24 85.53 641.87 85.6 640.23 85.6 638.54 85.43 635.18 85.26 633.02 85.06 630.85 84.38 626.56 84.01 624.74 83.57 622.92 82.56 619.35 81.88 617.02 81.21 614.68 79.55 610.12 78.68 608.23 77.67 606.37 75.4 602.8 74.02 600.85 72.57 598.92 69.5 595.22 67.04 592.4 64.51 589.66 59.28 584.33 58.13 583.24 56.95 582.14 54.65 579.91 53.07 578.33 51.51 576.75 48.65 573.42 48.07 572.66 47.5 571.87 46.45 570.22 45.91 569.16 45.41 568.06 44.73 565.76 44.6 564.83 44.53 563.94 44.46 562.05 44.46 561.09 44.5 560.13 44.53 558.17 44.39 537.16 44.23 512.27 43.99 481.24 57.49 480.99 61.16 479.18 63.29 477.84 65.32 476.77 65.96 476.53 66.39 476.36 68.62 476.09 70.58 475.91 86.17 455.45 60.59 439.69 60.56 437.5 60.59 434.44 60.66 429.33 60.39 429.19 60.29 429.26 60.22 429.33 60.08 429.46 60.02 429.46 59.95 429.43 59.85 429.33 59.78 429.19 59.14 433.1 54.15 442.27 54.15 442.51 54.11 442.71 54.11 443.13 54.11 443.47 54.18 443.81 54.28 444.5 54.42 445.19 54.55 445.84 54.75 447.14 54.82 447.73 54.89 448.31 54.89 448.59 53.98 446.56 53.47 446.53 52.39 446.49 51.55 446.97 52.12 447.97 51.31 448.76 51.28 448.83 51.18 448.79 50.84 448.86 50.4 449.31 49.86 449.58 49.62 449.79 49.35 449.27 49.22 449.31 49.02 449.38 48.78 449.48 48.71 449.51 48.17 449.82 48.11 449.86 48.04 449.89 47.7 450.06 47.26 450.23 47.19 450.16 46.76 450.34 46.55 450.1 45.88 450.85 45.51 451.19 44.9 451.85 44.36 452.22 44.39 452.29 44.5 452.46 44.39 452.77 44.33 453.32 44.16 453.77 44.06 453.94 44.02 454.04 43.89 454.11 43.75 454.15 43.48 454.01 43.21 453.67 42.64 452.67 42.47 452.36 42.13 452.05 41.83 451.88 41.56 451.71 41.12 451.61 40.72 451.98 41.36 455.59 40.92 455.31 40.55 455.14 40.18 454.97 39.43 454.66 39.16 454.56 38.86 454.46 38.32 454.22 37.71 453.94 37.07 453.67 35.89 453.05 35.28 452.74 34.71 452.43 33.56 451.74 33.02 451.37 32.45 450.99 31.34 450.2 30.86 449.86 30.39 449.51 29.45 448.86 28.97 448.55 28.47 448.21 27.49 447.59 26.61 447.07 25.73 446.63 23.88 445.74 23.41 445.56 23 445.39 22.09 445.05 21.92 444.95 21.75 444.88 21.41 444.74 21.11 444.64 20.81 444.6 20.2 444.53 19.86 444.47 19.53 444.36 18.85 444.19 18.58 444.12 18.31 444.09 17.74 443.98 17.43 443.98 17.2 444.05 16.99 444.29 16.79 444.53 16.52 444.74 16.12 444.95 15.61 444.98 14.87 444.98 13.92 444.91 13.42 444.88 12.95 444.77 12.51 444.57 12.17 444.29 11.87 444.05 11.53 443.68 10.72 443.16 10.14 442.75 9.47 442.34 8.9 441.79 8.59 441.34 8.42 440.96 8.12 440.62 7.95 440.52 7.78 440.41 7.51 440.14 7.41 439.97 7.31 439.8 7.24 439.38 7.24 439.21 7.31 439.04 7.45 438.73 7.58 438.49 7.75 438.22 8.02 437.7 8.09 437.5 8.12 437.29 8.15 436.84 8.09 436.53 8.02 436.26 7.78 435.68 7.68 435.47 7.58 435.26 7.31 434.89 7.18 434.78 7.01 434.68 6.64 434.54 6.4 434.51 6.2 434.51 5.72 434.54 5.52 434.51 5.29 434.51 4.91 434.41 4.75 434.34 4.61 434.23 4.37 434.03 4.31 433.86 4.27 433.72 4.27 433.34 4.31 433.07 4.37 432.83 4.58 432.35 4.75 432.14 4.91 431.97 5.32 431.63 5.66 431.42 5.96 431.25 6.6 430.9 7.04 430.8 7.45 430.66 8.25 430.36 8.52 430.18 8.79 430.05 9.23 429.67 9.47 429.39 9.64 429.12 9.91 428.5 10.04 428.23 10.14 427.99 10.41 427.51 10.68 427.16 11.02 426.85 11.22 426.78 11.43 426.72 11.8 426.58 11.87 426.48 11.9 426.41 11.97 426.2 12 425.96 11.97 425.69 11.87 425.24 11.83 424.76 11.93 424.24 12.3 423.32 12.47 423.08 12.61 422.84 12.95 422.39 13.15 422.25 13.38 422.12 13.86 421.88 14.33 421.74 14.83 421.6 15.78 421.33 16.15 421.19 16.49 421.02 17.16 420.64 17.47 420.4 17.8 420.12 18.38 419.57 18.78 419.09 19.19 418.61 19.93 417.65 20.27 417.21 20.64 416.76 21.31 415.87 21.52 415.56 21.75 415.28 22.12 414.67 22.22 414.36 22.36 414.08 22.49 413.46 22.56 413.05 22.6 412.64 22.53 411.78 22.46 411.2 22.36 410.65 22.09 409.55 21.92 409.14 21.75 408.69 21.41 407.83 21.28 407.42 21.18 406.98 21.08 406.12 21.08 405.77 21.11 405.43 21.25 404.78 21.35 404.47 21.48 404.16 21.79 403.58 22.02 403.3 22.29 402.99 22.8 402.44 23.03 402.2 23.27 401.93 23.64 401.38 23.88 400.97 24.08 400.52 24.35 399.59 24.45 399.11 24.52 398.6 24.62 397.64 24.65 397.02 24.65 396.4 24.62 395.2 24.62 394.82 24.65 394.41 24.59 393.62 24.52 393.31 24.42 393 24.15 392.35 23.91 391.9 23.68 391.46 23.03 390.67 22.8 390.43 22.56 390.19 22.02 389.77 21.75 389.6 21.48 389.47 20.91 389.26 20.71 389.19 20.54 389.12 20.13 389.02 19.83 388.88 19.53 388.74 18.92 388.47 18.58 388.33 18.21 388.23 17.5 387.99 17.13 387.85 16.72 387.75 15.95 387.44 15.51 387.27 15.1 387.06 14.33 386.62 14.03 386.44 13.76 386.31 13.15 386 12.74 385.83 12.3 385.69 11.46 385.35 11.06 385.17 10.68 385 9.94 384.56 9.71 384.35 9.47 384.14 9.06 383.66 8.79 383.32 8.56 382.94 8.15 382.19 7.98 381.84 7.82 381.47 7.72 381.19 7.65 380.95 7.45 380.44 7.31 380.2 7.14 379.99 6.77 379.78 6.67 379.75 6.33 379.68 6.16 379.48 6.1 379.17 6.1 378.86 6.1 378.58 6.13 378.34 6.2 377.83 6.26 377.55 6.33 377.28 6.5 376.69 6.57 376.49 6.64 376.28 6.7 375.87 6.7 375.6 6.6 375.32 6.43 375.08 6.2 374.87 5.96 374.7 5.72 374.57 5.25 374.26 4.98 374.09 4.71 373.88 4.17 373.5 3.9 373.26 3.63 373.02 3.13 372.51 2.89 372.23 2.62 371.92 2.38 371.54 2.15 371.17 1.98 370.86 1.78 370.58 1.4 370 1.3 369.76 1.17 369.48 1.03 368.97 1 368.66 1 368.35 1.07 368.18 1.17 367.97 1.4 367.63 1.57 367.42 1.78 367.22 2.21 366.81 2.38 366.6 2.55 366.39 2.89 365.95 3.13 365.67 3.4 365.43 3.67 365.23 3.97 365.02 4.21 364.88 4.44 364.75 4.88 364.44 5.25 364.2 5.66 363.92 6.4 363.41 6.8 363.13 7.21 362.89 8.02 362.45 8.49 362.17 8.96 361.9 9.87 361.35 10.35 361.07 10.79 360.8 11.7 360.25 12.03 360.01 12.37 359.8 13.01 359.36 13.49 359.05 13.92 358.74 14.8 358.09 15.14 357.81 15.51 357.54 16.22 356.95 16.42 356.75 16.66 356.58 17.13 356.23 17.4 356.03 17.67 355.85 18.18 355.44 18.38 355.27 18.55 355.13 18.95 354.82 19.29 354.55 19.66 354.24 20.03 353.86 20.4 353.49 21.18 352.7 21.41 352.46 21.68 352.22 22.22 351.77 22.6 351.46 23 351.19 23.78 350.57 24.11 350.26 24.49 349.92 25.13 349.19 25.36 348.99 25.57 348.75 25.97 348.3 26.07 348.1 26.17 347.92 26.34 347.51 26.51 346.89 26.61 346.28 26.71 344.97 26.75 344.73 26.78 344.49 26.88 343.98 27.02 343.5 27.15 343.01 27.49 342.05 27.59 341.78 27.72 341.54 27.96 341.02 28.13 340.68 28.33 340.34 28.77 339.65 28.94 339.44 29.11 339.24 29.48 338.83 29.85 338.38 30.22 337.93 30.96 337.01 31.17 336.73 31.37 336.42 31.74 335.84 32.01 335.43 32.28 335.05 32.89 334.29 33.02 334.12 33.19 333.95 33.53 333.57 33.76 333.37 34.07 333.16 34.64 332.82 34.98 332.65 35.32 332.51 35.96 332.17 36.4 331.96 36.8 331.72 37.61 331.17 37.98 330.93 38.35 330.66 38.66 330.41 38.96 330.21 39.57 329.8 39.84 329.56 40.08 329.32 40.51 328.77 40.78 328.42 41.02 328.08 41.53 327.39 41.66 327.19 41.8 327.02 42.1 326.64 42.27 326.43 42.47 326.23 42.84 325.85 43.08 325.64 43.31 325.4 43.48 325.09 43.58 324.72 43.55 324.44 43.45 324.2 43.28 323.99 43.04 323.86 42.5 323.65 42 323.48 41.53 323.27 40.58 322.86 40.21 322.76 39.81 322.66 39.03 322.48 38.66 322.45 38.29 322.42 37.54 322.35 37.24 322.35 36.9 322.31 36.3 322.24 35.92 322.14 35.59 322 34.88 321.63 34.61 321.49 34.34 321.32 33.76 321.08 33.53 321.01 33.29 320.9 32.75 320.8 31.88 320.63 31 320.53 29.18 320.36 28.67 320.32 28.13 320.25 27.08 320.12 26.38 320.05 25.7 319.98 24.35 319.81 23.81 319.7 23.27 319.57 22.22 319.33 21.89 319.26 21.52 319.22 20.81 319.02 20.57 318.91 20.3 318.74 19.86 318.4 19.63 318.02 19.46 317.61 19.19 316.68 19.05 316.34 18.92 316 18.75 315.58 18.58 315.14 18.28 314.28 18.18 313.97 18.07 313.66 17.87 313.04 17.77 312.56 17.7 312.08 17.67 311.05 17.64 310.64 17.6 310.23 17.64 309.4 17.74 308.92 17.91 308.44 18.31 307.52 18.51 307.21 18.72 306.93 19.12 306.38 19.46 306.04 19.83 305.66 20.57 305.01 20.91 304.7 21.28 304.39 22.06 303.84 22.53 303.57 22.97 303.29 23.95 302.81 24.35 302.64 24.79 302.43 25.63 302.09 26.07 301.95 26.54 301.89 27.49 301.89 27.86 301.95 28.2 302.02 28.87 302.23 29.34 302.43 29.82 302.71 30.69 303.29 31.17 303.6 31.61 303.94 32.52 304.63 32.89 304.94 33.26 305.28 34.03 305.87 34.34 306.04 34.68 306.14 35.32 306.28 35.65 306.31 35.99 306.31 36.63 306.21 36.97 306.07 37.34 305.9 37.95 305.46 38.22 305.22 38.49 304.94 38.89 304.32 39.1 303.98 39.23 303.64 39.57 302.95 39.74 302.67 39.91 302.43 40.34 302.02 40.61 301.82 40.88 301.68 41.49 301.51 41.73 301.47 41.96 301.51 42.4 301.61 42.67 301.75 42.91 301.92 43.25 302.4 43.31 302.64 43.38 302.92 43.38 303.43 43.31 303.81 43.21 304.19 43.01 304.94 42.98 305.18 42.94 305.42 42.98 305.83 43.04 306 43.48 306.45 44.23 306.62 44.6 306.62 44.97 306.62 45.71 306.59 46.01 306.59 46.32 306.55 46.92 306.49 47.26 306.38 47.57 306.25 48.14 305.9 48.71 305.52 49.29 305.18 50.4 304.46 50.87 304.25 51.35 304.01 52.32 303.67 52.7 303.53 53.07 303.46 53.81 303.19 54.01 303.09 54.25 302.95 54.62 302.61 54.85 302.33 55.06 301.99 55.33 301.3 55.46 300.89 55.56 300.51 55.83 299.76 55.97 299.48 56.07 299.21 56.41 298.73 56.68 298.49 56.98 298.25 57.66 297.97 57.93 297.94 58.23 297.97 58.77 298.11 59.14 298.28 59.51 298.45 60.15 298.93 60.39 299.17 60.62 299.45 61.06 299.96 61.2 300.13 61.6 300.58 62.38 300.75 62.68 300.72 62.99 300.65 63.59 300.51 63.93 300.41 64.24 300.34 64.91 300.24 65.25 300.27 65.59 300.31 66.26 300.48 66.56 300.58 66.9 300.68 67.51 300.86 67.85 300.89 68.18 300.86 68.86 300.68 69.36 300.51 69.87 300.34 70.75 299.83 70.92 299.62 71.05 299.41 71.32 298.97 71.56 298.55 71.79 298.18 72.23 297.35 72.5 296.84 72.74 296.32 73.31 295.26 73.51 294.92 73.72 294.61 74.12 293.95 74.29 293.61 74.43 293.23 74.73 292.48 74.83 292.2 74.97 291.93 75.24 291.41 75.44 291.1 75.64 290.83 76.05 290.28 76.35 289.94 76.65 289.59 77.33 288.98 77.53 288.8 77.77 288.63 78.17 288.26 78.34 287.98 78.51 287.67 78.78 287.09 78.98 286.81 79.22 286.61 79.72 286.16 79.96 285.85 80.16 285.51 80.57 284.82 80.94 284.2 81.38 283.65 82.32 282.62 82.59 282.32 82.9 282.01 83.47 281.42 83.74 281.15 84.01 280.91 84.55 280.39 84.79 280.19 84.95 279.98 85.36 279.6 85.73 279.33 86.13 279.09 86.98 278.68 87.55 278.4 88.09 278.16 89.17 277.65 89.64 277.48 90.12 277.27 91.03 276.86 91.3 276.72 91.6 276.55 92.17 276.2 92.44 276.07 92.75 275.9 93.32 275.59 93.63 275.38 93.93 275.17 94.47 274.69 94.87 274.39 95.28 274.08 96.12 273.49 96.49 273.22 96.87 272.87 97.61 272.22 98.11 271.71 98.62 271.12 99.53 269.96 99.9 269.41 100.27 268.86 100.98 267.72 101.32 267.14 101.62 266.52 102.23 265.29 102.4 264.88 102.6 264.5 102.87 263.67 102.94 263.36 102.97 263.09 103.01 262.47 102.94 262.23 102.87 261.99 102.64 261.55 102.43 261.27 102.16 261.03 101.66 260.52 101.49 260.31 101.32 260.03 101.02 259.52 100.85 259.21 100.68 258.87 100.41 258.18 100.27 257.77 100.17 257.36 100.14 256.5 100.21 256.26 100.27 256.02 100.44 255.57 100.61 255.19 100.78 254.85 101.18 254.23 101.45 253.99 101.72 253.79 102.3 253.41 102.64 253.27 102.94 253.13 103.61 252.96 104.12 252.86 104.63 252.86 105.67 252.93 106.65 253.07 107.6 253.2 109.45 253.58 110.3 253.85 111.14 254.13 112.79 254.78 113.53 255.06 114.24 255.37 118.33 257.36 122.68 259.49 126.42 261.24 129.23 262.37 131.86 263.36 133.58 263.95 135.33 264.43 137.26 264.84 138.88 264.98 140.6 265.12 142.35 265.25 143.97 265.25 144.85 265.29 145.96 265.25 147.04 265.25 147.68 265.18 148.56 265.08 149.27 264.98 149.81 264.91 150.21 264.84 151.26 264.57 152.14 264.36 152.85 264.19 153.62 263.95 154.33 263.74 155.31 263.47 156.39 263.12 157.4 262.82 158.41 262.54 159.26 262.27 160.27 261.99 161.28 261.68 162.19 261.44 163.07 261.2 163.51 261.06 164.35 260.82 165.3 260.65 166.11 260.48 166.88 260.34 167.52 260.21 170.8 259.93" fill="#CD586A"/>
</g>
</svg>
